/* XPM */
static char *bitcoin64[] = {
/* columns rows colors chars-per-pixel */
"64 64 249 2 ",
"   c #010101",
".  c #0A0600",
"X  c #0D0A02",
"o  c #0B0B0B",
"O  c #130C01",
"+  c #1A0E01",
"@  c #100D09",
"#  c #151202",
"$  c #1C1302",
"%  c #1C1A04",
"&  c #13120F",
"*  c #141414",
"=  c #1B1B1B",
"-  c #1B1913",
";  c #231502",
":  c #2B1601",
">  c #231A03",
",  c #2B1C03",
"<  c #231D0C",
"1  c #331C01",
"2  c #391A01",
"3  c #231E13",
"4  c #2C2204",
"5  c #2A2608",
"6  c #332503",
"7  c #332C04",
"8  c #3C2903",
"9  c #3A2808",
"0  c #3B3309",
"q  c #2D2515",
"w  c #272518",
"e  c #372D16",
"r  c #3B3B1A",
"t  c #1E1F20",
"y  c #242424",
"u  c #2C2C2C",
"i  c #292828",
"p  c #343434",
"a  c #3C3C3C",
"s  c #383837",
"d  c #34302A",
"f  c #411C01",
"g  c #422601",
"h  c #492302",
"j  c #442C02",
"k  c #4B2E08",
"l  c #552A04",
"z  c #433304",
"x  c #4C3305",
"c  c #4C3C0D",
"v  c #46380A",
"b  c #5A3C05",
"n  c #563807",
"m  c #443919",
"M  c #5C3B16",
"N  c #673505",
"B  c #783905",
"V  c #652A03",
"C  c #453A27",
"Z  c #413E37",
"A  c #523C23",
"S  c #4D450A",
"D  c #5C4004",
"F  c #53430A",
"G  c #574709",
"H  c #5B550C",
"J  c #574715",
"K  c #5A5714",
"L  c #474115",
"P  c #6B4B0A",
"I  c #684806",
"U  c #784807",
"Y  c #69560A",
"T  c #795808",
"R  c #675919",
"E  c #785B16",
"W  c #7C4516",
"Q  c #78660A",
"!  c #6A6313",
"~  c #786614",
"^  c #776F10",
"/  c #49432A",
"(  c #564928",
")  c #48453B",
"_  c #534C36",
"`  c #575339",
"'  c #695828",
"]  c #6C5826",
"[  c #696524",
"{  c #7A6D2A",
"}  c #3E3E40",
"|  c #403F40",
" . c #3F4040",
".. c #434343",
"X. c #4B4A42",
"o. c #464748",
"O. c #494949",
"+. c #474849",
"@. c #787843",
"#. c #884908",
"$. c #845506",
"%. c #8A5C0A",
"&. c #885709",
"*. c #9C5C05",
"=. c #955606",
"-. c #864A11",
";. c #865A17",
":. c #904C03",
">. c #A85E05",
",. c #87660A",
"<. c #9C6C0A",
"1. c #966608",
"2. c #99740B",
"3. c #876913",
"4. c #986A16",
"5. c #887517",
"6. c #977A15",
"7. c #87760C",
"8. c #A76907",
"9. c #AE730C",
"0. c #AC7B0A",
"q. c #A57609",
"w. c #BA7A05",
"e. c #B67709",
"r. c #AA6A13",
"t. c #A97914",
"y. c #B47C11",
"u. c #BC7C17",
"i. c #B46C0B",
"p. c #90732C",
"a. c #A97B26",
"s. c #8C5322",
"d. c #C57A06",
"f. c #C87B08",
"g. c #C06D04",
"h. c #8C851A",
"j. c #998617",
"k. c #9B8C0D",
"l. c #AB850B",
"z. c #BC8209",
"x. c #B6890C",
"c. c #A7980B",
"v. c #A88617",
"b. c #B78915",
"n. c #AB9419",
"m. c #B99517",
"M. c #BB9309",
"N. c #BAA11A",
"B. c #B7AA0F",
"V. c #948A2A",
"C. c #AA9526",
"Z. c #B89927",
"A. c #B18325",
"S. c #B1A935",
"D. c #C58B0C",
"F. c #CC8C0B",
"G. c #C68409",
"H. c #D98B09",
"J. c #CC9409",
"K. c #C89509",
"L. c #D4950B",
"P. c #DB930A",
"I. c #D59A0C",
"U. c #DA9808",
"Y. c #C28412",
"T. c #CE8C14",
"R. c #C68918",
"E. c #D18915",
"W. c #C39414",
"Q. c #CB9412",
"!. c #C49A14",
"~. c #C89918",
"^. c #D99C14",
"/. c #DC9B1A",
"(. c #D59517",
"). c #E7970A",
"_. c #E99C12",
"`. c #CBAA0A",
"'. c #D3A20C",
"]. c #DCA40C",
"[. c #C5B50D",
"{. c #DBB30B",
"}. c #C9A619",
"|. c #DCA214",
" X c #DBA41A",
".X c #D5A816",
"XX c #C5B416",
"oX c #D6B41B",
"OX c #E6A80C",
"+X c #ECBB0C",
"@X c #E7B70C",
"#X c #F3BA0C",
"$X c #E7A616",
"%X c #F3AB16",
"&X c #E6B312",
"*X c #E7B618",
"=X c #F3BA14",
"-X c #F3A606",
";X c #C99824",
":X c #D5952A",
">X c #C58D2B",
",X c #C7A924",
"<X c #D7A722",
"1X c #CBB627",
"2X c #DBB423",
"3X c #D5B827",
"4X c #D5B933",
"5X c #D6B036",
"6X c #E4AA25",
"7X c #E4BA22",
"8X c #E9B727",
"9X c #E0B833",
"0X c #D3C313",
"qX c #D3CC1D",
"wX c #F6CB0C",
"eX c #F8D70E",
"rX c #EAC619",
"tX c #F7C819",
"yX c #F7D717",
"uX c #EACA12",
"iX c #F9E412",
"pX c #FAE71B",
"aX c #FEF71A",
"sX c #F1E411",
"dX c #DAC428",
"fX c #D9C736",
"gX c #D3CE2B",
"hX c #E4C323",
"jX c #E7C727",
"kX c #F4C926",
"lX c #EBD326",
"zX c #F7D827",
"xX c #F3CC33",
"cX c #E8D537",
"vX c #F4DA34",
"bX c #E7CA37",
"nX c #F9E526",
"mX c #FEF628",
"MX c #FAE537",
"NX c #FDF637",
"BX c #CEBB40",
"VX c #DDD645",
"CX c #DFDF56",
"ZX c #E7D446",
"AX c #F7E445",
"SX c #FEF946",
"DX c #F8F457",
"FX c #FCF96C",
"GX c None",
/* pixels */
"GXGXGXGXGXGXGXGXGXGXGXGXGXGXGXGXGXGXGXGXGXGXGXGXGXGX        o o   .         GXGXGXGXGXGXGXGXGXGXGXGXGXGXGXGXGXGXGXGXGXGXGXGXGXGX",
"GXGXGXGXGXGXGXGXGXGXGXGXGXGXGXGXGXGXGXGXGXGX    o o o * * = = t t t = = * * o .     GXGXGXGXGXGXGXGXGXGXGXGXGXGXGXGXGXGXGXGXGXGX",
"GXGXGXGXGXGXGXGXGXGXGXGXGXGXGXGXGXGXGXGX  . o * y i u u p p p p p p p u u i y t = o o   GXGXGXGXGXGXGXGXGXGXGXGXGXGXGXGXGXGXGXGX",
"GXGXGXGXGXGXGXGXGXGXGXGXGXGXGXGXGX    o * y u p p p a } a } | Z | | a a } s p p u i t * o     GXGXGXGXGXGXGXGXGXGXGXGXGXGXGXGXGX",
"GXGXGXGXGXGXGXGXGXGXGXGXGXGXGXGX  o = i u p s a } ..X.O.O.O.o.o.+.o.O.O.o...| } a s d u y = o   GXGXGXGXGXGXGXGXGXGXGXGXGXGXGXGX",
"GXGXGXGXGXGXGXGXGXGXGXGXGXGX  . * i u s a ..O.O.O.X._ d t q 4.;.& * 3 ] { _ } +.o.o.} s p u y * .   GXGXGXGXGXGXGXGXGXGXGXGXGXGX",
"GXGXGXGXGXGXGXGXGXGXGXGXGX  o y d p a X.o.o.a y e b.T.k   ; P.Y.O   $ ].tX5.o * ( X.o.o...s p i t o   GXGXGXGXGXGXGXGXGXGXGXGXGX",
"GXGXGXGXGXGXGXGXGXGXGX  o * i p a ..O.O.X.5.z   ; d.P.U   O G.G.O   1 kXyXY   ; !.!.J p ..o.} s u i *     GXGXGXGXGXGXGXGXGXGXGX",
"GXGXGXGXGXGXGXGXGXGX  . = u s } o.+.p q ,XpXk.    4.).r.; g G.G.X   4 ,X2Xx   D &X{.v   = _ o.o.s p i = o   GXGXGXGXGXGXGXGXGXGX",
"GXGXGXGXGXGXGXGXGX  o t u s  .o.X.m     6.zXJ.;   9 x h w.H.%XD.O     O z <.Y n.rXM.X   v ;X{ O.o.} p u = .   GXGXGXGXGXGXGXGXGX",
"GXGXGXGXGXGXGXGX  o t p a ..o._ 6.K.,   , W.P.l       . i.).%XR.O       x =XzXkXnXR   O q.lX}.< p o.} p i t o   GXGXGXGXGXGXGXGX",
"GXGXGXGXGXGXGX  . t u a ..O.i m |.&X<.X 9 R.E.=..       =.-X%X(.O       ~ AXMXyXoX%   4 {.lXS   o / o. .s i =     GXGXGXGXGXGXGX",
"GXGXGXGXGXGXGX. = u s o.O.i     I Q.a.N i./._.g.1       U _.).G.O       v.MXMXyX,.      S ,..   G W.' o.} p u =   GXGXGXGXGXGXGX",
"GXGXGXGXGXGX  * u s ..O.( $.>   . x ; + =.f.E.f.U     + &.-X-XL.O       ,.rXzX*X4       6 M.Y b '.wXM.d o.a p i *   GXGXGXGXGXGX",
"GXGXGXGXGX  o i s ..O.C 0.^.q.+         2 >.d.f.#.1 *.T.).=XtX{.#       . 9 5.6.X     X v.wXwX#X#X'.z   y o.a p i o   GXGXGXGXGX",
"GXGXGXGXGX. y p a +.p O T J.J.%.+         N *.N + l H._.).vXaX0X#           . j.j.4   I uXwXwXwX}.8     0 _ ..s u t o GXGXGXGXGX",
"GXGXGXGX  * u a ....&   . b z.w.U +       . O     ; >.f.).yXmX0X#           7 uXyX`.,.J.wXeXwX.X0     Y lXS.)  .p u *   GXGXGXGX",
"GXGXGX  o i p } o.] 3.;   9 r.*.#.l .               N >.P.yXaX[.O           h.pXwX@X+XyXpXeXK.6     7 sXmXcX(  .} u t o   GXGXGX",
"GXGXGX  = u a o._ x.U.<.8 U #.-.N -.l o             : #.^.yXiXM.O         % gXiX+X+XeXpXpX}.6       X c.[.c . p  .s u *   GXGXGX",
"GXGXGXo y p ..o.q T z.w.j 2 N s.N -.B k .         O f #.rXnX@X8..         X 7.{.wXiXiXmXXX5         X T 8     3  . .p t o GXGXGX",
"GXGX  * u s O.p     , g     O h N -.-.B h     . 2 h B G.iXzX/.8.O             0 B.aXaX[.5         7 q.H.I + Y Z.`  .p u *   GXGX",
"GXGXo y p } O.m > .             N =.:.#.B h ; l B N #.OXeX^.E.b.O               # k.B.5         Y K.J.U.G.w.].8Xp. .a u t   GXGX",
"GX  o i s .._ N.oX3.,         X -.=.:.:.:.V : V B #.9.pXuXd.G.9.O                 S Q           6.;XD.|.I.J.w.4.c p  .p y o   GX",
"GX  * d a O.( &XzX%XG.=.g O   N f.>.i.8.#.+   : B 1.@XiX].d.L.w.O               7 ,XdXv         j f.L.^.x.T 2 .   t  .p u -   GX",
"GX  y p } o.3 n 2.z._.$XH.i.U i.f.f.:X:Xk       2 ~.NXyXL./.|.y.O             7 `.wXzXm.X       . 4.y.D $       X q ..s u =   GX",
"GXo y p ..} .     P $X_.).%X*.> n =.i.;.X       . c.NX@XL.^.<Xt.O             l.yXyXyX'.l     # c U #       $ U 6.A.) a p 3 o GX",
"  o i p ..Z 4 #   U ).P.$XH.j     . : +         S sXuX].L.K.J.l.O             Y lXzXrX.X8.j N t.(.9.+       $ e.<X;X_ a p y o   ",
"  * u s o.' w.i.,.8 N 1.R.*.O                 # [.eX^.<XI.z.'.M.O             X c.rXlX*X*XH.e.Y.D.Y.6     . : ;.E b d ) p y *   ",
". = u a o.{ I.].Q.+     + O                   ! sXuXL.6X~.Q.oX}.+               v rXNXSXZX:Xf.e.Y.E.6.Y $.*.w.x     = ..p i *   ",
"  = u a ..q j b x                           X C.zXU.I.Q.z.9XxX}.#               @ XXmXvXu.r.A.u.R.&XiXiXU.f./.I # % q ..s u *   ",
"  = p } o.&                                 + J.-X6X8XJ.'.*XtXqX#                 n.tX9.B a.R.u.d.uXmXpXU.G.(.F.}.gXC...s u =   ",
"o = u } ..q , , , , , ; > $ $ ; ; $ + # + O 6 w.D.,XZ.Y.7XjXnXqX%                 P 9.#.N 4.>X:X].NXSXaX).f.(./.*XyXC. .s u =   ",
"o = p a O.p.W.u.f.F.F.Q.R.8.q.w.].I.e.G.J.J.q.; # % X P *XlXaXqX%       5 V.j.6.3.v + + + , 9 k c K K H D x n n b I J ) s u =   ",
"  = u a O.V.,XW.u.E.6XOXJ.e.w.w.].#XH.6X*X#XD.+       6 .XnXmXgX%       R lXqXhX2Xx                                 o a s i =   ",
". = u a O.C c 7 n R./.OXOXI.>Xy.F.OX$X8X8X_.P.,       X C.mXSXVX%     # n.dX2XhX~.4                           $ , # 3 | s i *   ",
"  * u a +.t     ; 9.~.R.8.<.9.y.L.$X X/.8X/.8XR         5 1XSXVX%   # 5.4X1XN.hX6..                           P d.Y.] ..p i *   ",
"  * i a +.u 5 v E G , $   ; e.D.OXkX6X(.8X8X8Xt.+         > ^ h.S ! N.fXdXfXVXbXS                   I x.,.G 7 x.&X'.' } p y o   ",
"  o y s ..X.4XlXzXc       X l.@X+XM.E m.xXxX8XoX!             % gXlXdXbXZXDXFXS.X         +       + !.wXwXpX[.G H T / } u y o   ",
"GXo y p  .X.4XnX0XF         ,.N.G $   J jX8XbXAX1X>           O N.1XcXcXcXfXS.4         F W.,.8 X S wXwX*X!.,.      s a u t o GX",
"GX  = u } o.K F %       > I <.;       . v.lXvXAX^             O 6.<XMXMXlX3X,XS       # b.tX*X.Xm.,.`.{.K.e.=.x ; & } s i =   GX",
"GX  * u s ..y     X 8 1.!.{.L.x         0 VXDXh.X             X 1.}.7X3X7XjXlX1XJ     T *XkX8X*Xl.$ % D 1.w.w.e.%.C } p y *   GX",
"GX  o i p } a % Y v.'.&X&X|./.A.O         [ V.o               O t.}.1XoXoXoXrXlXdXH F ~.*XkX*X9Xx       X 8 U 1.$.C a u t o   GX",
"GXGXo = u a ..{ lX*X X X&X*XQ.t.$         ! 5.                $ m.2X2X3X}.,X,XXX3X^ 3.hXkXvX XA.O             ; e a s i =   GXGX",
"GXGX  * i s ..` 4Xb.x b J.2X3.$         b m.t.G +             # }.oX2X4X,Xn.3.,.S   X C.zX7X9XE.I +     , >     i } p y *   GXGX",
"GXGXGXo y u } o./ #   O $.z .       . z ,.T ;.p.T 9 .         $ 4XhXfX3Xn.,.v #       # 6.$X6XP.E.=.6 + 8.M.Q w a s i = . GXGXGX",
"GXGXGX  * u p ..p   X R a.O       . J 3.;.;.1.6.Z.t.,         % 3XlXMXcX}.G             % 4.$X8X(.H.d.h 9.8X}./ a p y *   GXGXGX",
"GXGXGX  . t u a ..e l.jX<XI       R Z.1.%.j.n.m.oXb.+         $ b.2XZXcXXX5.X             + 0.tX#X#X1.. ; %.R } s i t o   GXGXGX",
"GXGXGXGX  * i p a ) Z.8X=.:   . I b.m.t.7.3.n.1XqXE           + y.^.2X3X4XfXL       X       $ b.=XtX,.    @ s a u y o   GXGXGXGX",
"GXGXGXGXGX. = i s  .X.E %   . P ~.~.4X}.^ O 5 5.N.5           $ 0.b.~.,XfXAXj.. 7 j.V.#       ; l.zX#XT X i } p y =   GXGXGXGXGX",
"GXGXGXGXGX  o y p s  .i   o E Q. XcXcXn.5     . R J +         $ q.0.b.ZX4XgXC.h.fXSXNX!         > M.wX`./ } p u = o   GXGXGXGXGX",
"GXGXGXGXGXGX  * y u } ..y 5.$XR.Q { 1XY         3.Z.1.I .     + q.!.~.C.c % X h.MXnXyX}.>   > X   , c.!  .s u y o   GXGXGXGXGXGX",
"GXGXGXGXGXGXGX  * u p s  .[ K.&.X   S r       5 C.l.<.%.+     $ l.2X7X3.      0 dXhX'.D.&.T F.U .   w | s u y *   GXGXGXGXGXGXGX",
"GXGXGXGXGXGXGX    * i p a  ./ >   # S.CXK     R Z.2.1.W .     $ b..X7Xv.X     . j.4Xv.b , 7.&X<XM t } s u y *     GXGXGXGXGXGXGX",
"GXGXGXGXGXGXGXGX  o * i p a | p @ @.FXDXR   # 6.t.%.U k       $ y.^.<XZ.>       z v.4.+   > x.t./ a s u y = o   GXGXGXGXGXGXGXGX",
"GXGXGXGXGXGXGXGXGX  o * i p s ..a @.CXS.X   J b.t.b l ;       ; u.<X}.t.9 # >   O ,.<.b     e Z a s u y *     GXGXGXGXGXGXGXGXGX",
"GXGXGXGXGXGXGXGXGXGX    * y u p  .) ` r   X 6.}.3.  . l 3.8   , A.b.P 7 G v.v.O   x 8.&.3 i } a p i t *     GXGXGXGXGXGXGXGXGXGX",
"GXGXGXGXGXGXGXGXGXGXGX    * t i u a } } u e v.m.c   O #.I.P   : f.>X<   c 5X,X6   $ M C a a s u i = *     GXGXGXGXGXGXGXGXGXGXGX",
"GXGXGXGXGXGXGXGXGXGXGXGXGX  o = i i p s } } ) ( 3   ; B 8.g   , (.5Xv   5 S.C.m = p a a s p i y * o   GXGXGXGXGXGXGXGXGXGXGXGXGX",
"GXGXGXGXGXGXGXGXGXGXGXGXGXGX    * = i i p s a } Z s d A M 3 o q a.p.C * y / Z Z a s p p i y = o     GXGXGXGXGXGXGXGXGXGXGXGXGXGX",
"GXGXGXGXGXGXGXGXGXGXGXGXGXGXGXGX    * = y i u p p a } } } Z a }  .} ) } a a s p p u i y = *     GXGXGXGXGXGXGXGXGXGXGXGXGXGXGXGX",
"GXGXGXGXGXGXGXGXGXGXGXGXGXGXGXGXGX    o o = t y i u u p p p p s p p p p p d i i y = = o o     GXGXGXGXGXGXGXGXGXGXGXGXGXGXGXGXGX",
"GXGXGXGXGXGXGXGXGXGXGXGXGXGXGXGXGXGXGXGX    o * = = t y y i i i i i i y t t t * o o     GXGXGXGXGXGXGXGXGXGXGXGXGXGXGXGXGXGXGXGX",
"GXGXGXGXGXGXGXGXGXGXGXGXGXGXGXGXGXGXGXGXGXGX      o o o * * * * * * * o o o         GXGXGXGXGXGXGXGXGXGXGXGXGXGXGXGXGXGXGXGXGXGX",
"GXGXGXGXGXGXGXGXGXGXGXGXGXGXGXGXGXGXGXGXGXGXGXGXGXGX            o     o     GXGXGXGXGXGXGXGXGXGXGXGXGXGXGXGXGXGXGXGXGXGXGXGXGXGX"
};
