/* XPM */
static char *bitcoin32[] = {
/* columns rows colors chars-per-pixel */
"32 32 223 2 ",
"   c #030201",
".  c #090501",
"X  c #0D0A01",
"o  c #0C0C0C",
"O  c #140D01",
"+  c #1C0F03",
"@  c #151103",
"#  c #1B1302",
"$  c #1D1A05",
"%  c #1C1909",
"&  c #131313",
"*  c #1C1C1C",
"=  c #1F1A12",
"-  c #221502",
";  c #241C04",
":  c #2A1C02",
">  c #2A1E08",
",  c #221C0D",
"<  c #361B02",
"1  c #201C16",
"2  c #2B2204",
"3  c #2A230A",
"4  c #27210E",
"5  c #342405",
"6  c #3A2B04",
"7  c #352B0A",
"8  c #3B2B09",
"9  c #312806",
"0  c #3A3105",
"q  c #3A350A",
"w  c #32310D",
"e  c #28261B",
"r  c #2E2A1D",
"t  c #252318",
"y  c #302C1B",
"u  c #333319",
"i  c #1F1F20",
"p  c #232324",
"a  c #2B2C2C",
"s  c #272728",
"d  c #322F28",
"f  c #3B3526",
"g  c #35332B",
"h  c #3A352C",
"j  c #383528",
"k  c #2E2F31",
"l  c #2F3031",
"z  c #333335",
"x  c #3C3A32",
"c  c #363638",
"v  c #3B3B3C",
"b  c #373737",
"n  c #482904",
"m  c #532E02",
"M  c #562503",
"N  c #44390A",
"B  c #473708",
"V  c #5C3402",
"C  c #543A06",
"Z  c #563808",
"A  c #773F0C",
"S  c #683B07",
"D  c #443C2E",
"F  c #463B29",
"G  c #423F34",
"H  c #4B450D",
"J  c #5D4307",
"K  c #504409",
"L  c #5B440C",
"P  c #5C4B0C",
"I  c #574704",
"U  c #5C5508",
"Y  c #514B12",
"T  c #5C4916",
"R  c #634304",
"E  c #694A05",
"W  c #644B0D",
"Q  c #6C4B0A",
"!  c #664607",
"~  c #774A09",
"^  c #6A550B",
"/  c #6F590A",
"(  c #7D530A",
")  c #7A5C08",
"_  c #765508",
"`  c #614B17",
"'  c #665912",
"]  c #675715",
"[  c #765711",
"{  c #7D640B",
"}  c #73600D",
"|  c #68611A",
" . c #766C16",
".. c #76641C",
"X. c #746210",
"o. c #7F771C",
"O. c #42402C",
"+. c #534B2C",
"@. c #5A4B26",
"#. c #5E5821",
"$. c #4D4531",
"%. c #42413C",
"&. c #494438",
"*. c #4B493B",
"=. c #444234",
"-. c #524B39",
";. c #524931",
":. c #5C563B",
">. c #59533B",
",. c #67552A",
"<. c #675B35",
"1. c #6A603A",
"2. c #736A31",
"3. c #786424",
"4. c #3D3E40",
"5. c #464541",
"6. c #854607",
"7. c #885A05",
"8. c #995A06",
"9. c #835E10",
"0. c #8A5512",
"q. c #A45F0B",
"w. c #84620F",
"e. c #8C640B",
"r. c #866A0E",
"t. c #99690B",
"y. c #9C750D",
"u. c #97750E",
"i. c #816C13",
"p. c #8D6914",
"a. c #956F19",
"s. c #8F7315",
"d. c #887918",
"f. c #997913",
"g. c #A66B09",
"h. c #A66A0B",
"j. c #A7730C",
"k. c #AA7209",
"l. c #A57A0C",
"z. c #AD790D",
"x. c #AA7207",
"c. c #B3750A",
"v. c #BD7F0B",
"b. c #B67E0A",
"n. c #A47B14",
"m. c #A07614",
"M. c #B77B11",
"N. c #BA7E18",
"B. c #A36816",
"V. c #806A23",
"C. c #8B7524",
"Z. c #C57C0A",
"A. c #C07E15",
"S. c #9D9218",
"D. c #938811",
"F. c #A4830D",
"G. c #A8880D",
"H. c #B5870C",
"J. c #A0980D",
"K. c #B5980D",
"L. c #AC8215",
"P. c #A68919",
"I. c #B2801C",
"U. c #B68B17",
"Y. c #A89518",
"T. c #B1941B",
"R. c #B9981A",
"E. c #ACA00D",
"W. c #B9A119",
"Q. c #858227",
"!. c #938722",
"~. c #9F9423",
"^. c #818139",
"/. c #B8A425",
"(. c #C6860D",
"). c #CC930B",
"_. c #CA9B0E",
"`. c #D2920C",
"'. c #C78C13",
"]. c #C19515",
"[. c #CD9313",
"{. c #C89A1A",
"}. c #DC9E10",
"|. c #D49714",
" X c #E59C10",
".X c #CCA40C",
"XX c #D6A40C",
"oX c #C6A112",
"OX c #C6A519",
"+X c #CEA21F",
"@X c #D2A112",
"#X c #D1A617",
"$X c #DCBB13",
"%X c #D9B719",
"&X c #E6A91D",
"*X c #EBBD15",
"=X c #E8B51A",
"-X c #F0B913",
";X c #CA9523",
":X c #C7A723",
">X c #C9B527",
",X c #DBBC24",
"<X c #D6B625",
"1X c #C8B938",
"2X c #E4BB24",
"3X c #D5C619",
"4X c #EFC00D",
"5X c #F5CF0C",
"6X c #E9C31C",
"7X c #E6C315",
"8X c #F4D316",
"9X c #FCE616",
"0X c #DAD72E",
"qX c #E6C828",
"wX c #E5CB30",
"eX c #E9D436",
"rX c #F0D735",
"tX c #F9D726",
"yX c #F1E322",
"uX c #F5E330",
"iX c #BFBE46",
"pX c #E4D540",
"aX c None",
/* pixels */
"aXaXaXaXaXaXaXaXaXaXaXaXo o & & & & & o aXaXaXaXaXaXaXaXaXaXaXaX",
"aXaXaXaXaXaXaXaXaXo & i a z c c v c k s i & . aXaXaXaXaXaXaXaXaX",
"aXaXaXaXaXaXaX  & s c 4.*.&.x ,.g $.:.v 4.c s &   aXaXaXaXaXaXaX",
"aXaXaXaXaXaXo p c *.:.r [ 0.- x.O r.L., 3.$.v c p o aXaXaXaXaXaX",
"aXaXaXaXaXo a %.&.e R.E 5 6.7.H.O N { / oX; @.:.v s o aXaXaXaXaX",
"aXaXaXaX& a v G L.n w.g.. . Z.`.O   P.tXd.# K.Y d %.a o aXaXaXaX",
"aXaXaXo a 5.@.# R Z h.Z.< O c.`.@ . Y.qX6 . / I F.,.v s o aXaXaX",
"aXaX  i 4.g t.7.X   m 8.m c.=X$X#   # X.N 2 .X4XG.; O.v i   aXaX",
"aXaX& c -.7 6 h.M . . . O 8.*X3X@     Y.$X.X5XG.@ U >X*.l & aXaX",
"aXo s 4.] g.n ~ ~ n     . S 7X_.O   @ E.5X9XY.@   W U t v p . aX",
"aX& c =.; # . + A 6.n + M x.7XM.O     # D.J.@   I H.7.n.:.l & aX",
"aX* v C.].S + : q.q.M < 6.=XXXc.O       U ^     e.`.z.R r b * aX",
"o s v 3 )  X(.~ 8.B.#   } 8X}.U.O     0 $X#X; X Z Z O ; ` &.p o ",
"o k -.! Z g.c.- . O   X J.=X`.L.@     2 %X6Xm.t.M.# . R p.G s o ",
"& c $.e.B   O         K 7X|.#XOX@       d.uX;XA.[.W.g.7.; g k & ",
"& b g - - - + # # + O _ |.].=X3X$   . . C l.0.N.%XyX`.'.OX2.a & ",
"& z 1.L.b.[.M.k.).'.`.E @ 0 ,X0X$    .R.[ O + > 7 q 9 9 6 f z o ",
"& c x 4 ( '.b.b.}.&X=Xa.  . S.0X$ q :X3X^         .   : E F z o ",
"o a &.d.i.- - H.|.U.qX+X9   @ Y !.>XpXiX;   X   X F.G.{ u.;.s o ",
"o s 5.!.K   9 ) 2 3 :XrXY     @ R.rXwXd.  O f.y.^ .XXXE % c p   ",
"aX* b e B l.@Xy.X   ] Q.X     O L.,X,X,X' / 2X=XC : R 7.T z * aX",
"aX& l :.R.y.{.w.X   P P .     @ {.<XW.P.' i.qX{.5   + # h a o aX",
"aX  p v y 8 W . . B w.a.[ @   $ >XwXs.$   X p.&Xv.V y.] z i   aX",
"aXaX& z v U.[   W P.s.T.P.X   # R.wX/.;   . X u.*X! 7 $.a & aXaX",
"aXaX  * b +.# Q :X:X8 q ' X   O j.:X1X .~.o.  O y.K.d z =   aXaX",
"aXaXaXo s c +.n.P  .X @ f.( X + H.T.3 H qXoXC C $ #.b * . aXaXaX",
"aXaXaXaXo s %.f u iXw N f.Q . @ U.R.# . s.[ B n.F z p o aXaXaXaX",
"aXaXaXaXaXo p z 5.^.% s.W 5 < - I.w.L 9 6 _ , G z * o aXaXaXaXaX",
"aXaXaXaXaXaXo * a z h 3.> n ~ - I.3 ....* F b a & o aXaXaXaXaXaX",
"aXaXaXaXaXaXaX  & p k z z D F d <.h x G z a * o   aXaXaXaXaXaXaX",
"aXaXaXaXaXaXaXaXaX  & & p s a k a a s 1 * o   aXaXaXaXaXaXaXaXaX",
"aXaXaXaXaXaXaXaXaXaXaXaX  o o o & & o   aXaXaXaXaXaXaXaXaXaXaXaX"
};
