/* XPM */
static char *bitcoin16[] = {
/* columns rows colors chars-per-pixel */
"16 16 204 2 ",
"   c #0E0600",
".  c #160F00",
"X  c #160E01",
"o  c #150D03",
"O  c #131103",
"+  c #161002",
"@  c #171302",
"#  c #171203",
"$  c #161204",
"%  c #191303",
"&  c #191602",
"*  c #191304",
"=  c #1A1705",
"-  c #1C1A04",
";  c #1E1A04",
":  c #111112",
">  c #121213",
",  c #121314",
"<  c #131314",
"1  c #121315",
"2  c #131415",
"3  c #151516",
"4  c #151616",
"5  c #151617",
"6  c #161717",
"7  c #161618",
"8  c #171718",
"9  c #17181A",
"0  c #181819",
"q  c #19191B",
"w  c #1A1A1B",
"e  c #1B1B1C",
"r  c #1C1C1D",
"t  c #1C1D1D",
"y  c #1D1E1E",
"u  c #201602",
"i  c #201B02",
"p  c #261902",
"a  c #221904",
"s  c #251E04",
"d  c #3F1E02",
"f  c #292307",
"g  c #292308",
"h  c #2A2708",
"j  c #342205",
"k  c #3B2303",
"l  c #372A07",
"z  c #3E2A03",
"x  c #3E2904",
"c  c #3F2B04",
"v  c #3B2C06",
"b  c #312B08",
"n  c #3E3209",
"m  c #1E1F20",
"M  c #212121",
"N  c #202022",
"B  c #232222",
"V  c #232323",
"C  c #242423",
"Z  c #252523",
"A  c #232324",
"S  c #232425",
"D  c #272725",
"F  c #2A2A27",
"G  c #272828",
"H  c #282828",
"J  c #292928",
"K  c #292929",
"L  c #2A2A2A",
"P  c #2B2B2A",
"I  c #2C2C2B",
"U  c #2E2E2C",
"Y  c #332D24",
"T  c #322F26",
"R  c #333126",
"E  c #383125",
"W  c #353229",
"Q  c #38352B",
"!  c #39372D",
"~  c #3A362F",
"^  c #3E3928",
"/  c #3E382A",
"(  c #39382D",
")  c #3B3830",
"_  c #462506",
"`  c #462C03",
"'  c #492C06",
"]  c #423105",
"[  c #433105",
"{  c #423305",
"}  c #473B05",
"|  c #4A3A07",
" . c #4F3906",
".. c #463308",
"X. c #443409",
"o. c #46380A",
"O. c #403D0D",
"+. c #453C0C",
"@. c #4C3D09",
"#. c #513806",
"$. c #5C3905",
"%. c #41331D",
"&. c #4A3719",
"*. c #623C04",
"=. c #673F06",
"-. c #403D2C",
";. c #534508",
":. c #56430C",
">. c #58450C",
",. c #524A09",
"<. c #4D401E",
"1. c #5D4613",
"2. c #544813",
"3. c #5F4B17",
"4. c #514119",
"5. c #52411B",
"6. c #544218",
"7. c #54441A",
"8. c #51431D",
"9. c #52421C",
"0. c #58421B",
"q. c #5E4C1E",
"w. c #6B4F07",
"e. c #61470A",
"r. c #664709",
"t. c #65460A",
"y. c #664D0E",
"u. c #754B07",
"i. c #794906",
"p. c #704F0C",
"a. c #6E5708",
"s. c #6A580E",
"d. c #7E5B0C",
"f. c #7E5D0E",
"g. c #7F5F0F",
"h. c #655815",
"j. c #6B5913",
"k. c #6E5C10",
"l. c #6E5B15",
"z. c #62531F",
"x. c #7F710C",
"c. c #746515",
"v. c #7F6510",
"b. c #7A6913",
"n. c #756919",
"m. c #4E4122",
"M. c #4C4423",
"N. c #47412C",
"B. c #44402E",
"V. c #4A442D",
"C. c #504223",
"Z. c #584524",
"A. c #594821",
"S. c #5A4B22",
"D. c #5B4F20",
"F. c #5A4E25",
"G. c #5B5429",
"H. c #5E5D2F",
"J. c #605020",
"K. c #645B20",
"L. c #844A0A",
"P. c #805B08",
"I. c #8F6209",
"U. c #8E640A",
"Y. c #8B6C08",
"T. c #8D690E",
"R. c #976307",
"E. c #93690A",
"W. c #986A0D",
"Q. c #8D770B",
"!. c #9C700B",
"~. c #9A7C09",
"^. c #866710",
"/. c #8C6D13",
"(. c #916E13",
"). c #8C7B17",
"_. c #8A7318",
"`. c #9F7510",
"'. c #907814",
"]. c #A5730B",
"[. c #B17C19",
"{. c #9C8115",
"}. c #98851C",
"|. c #BC8B0F",
" X c #BB8C0E",
".X c #BE8F0F",
"XX c #A58317",
"oX c #A69B1E",
"OX c #B59511",
"+X c #BB9714",
"@X c #B89C16",
"#X c #B59B1C",
"$X c #BE9F1E",
"%X c #B29E23",
"&X c #BE9F24",
"*X c #BFAE2D",
"=X c #C19414",
"-X c #C99212",
";X c #C99F1C",
":X c #C3A017",
">X c #C8A412",
",X c #D2B510",
"<X c #C2A422",
"1X c None",
/* pixels */
"1X1X1X1X1X0 S P P A 9 1X1X1X1X1X",
"1X1X1X0 U B.Z.0.9.F.B.P 8 1X1X1X",
"1X1Xt ) q.f.` R.v {.s.D.( 0 1X1X",
"1X0 ~ 1.x i.*. Xs b.;.~.l.( 3 1X",
"1XI 5.=._   $.>X@ ,.,XQ.} K.P 1X",
"9 V.e.k L.d U..X. & x.; P.P./ 8 ",
"A m.I.u.' a OX|.. ; @Xp.r.` m.m ",
"G 9.z p . { =X:X= @ ).[.+X!.J.A ",
"H S.W.].-XW.l oXO.}.X.o b [ 0.A ",
"m G.| a.T.*Xg h %X*Xg @.a.Y.m.t ",
"8 / ^.T.% h.@ $ $X#Xk.:X .#.E 2 ",
"1XP J...#./...% <Xc.= f.E.5.Z 1X",
"1X2 ~ 3._.+.>.u XXc.).{ j.R : 1X",
"1X1X8 W H.2.r.j (.n y.6.T 3 1X1X",
"1X1X1X, S -.%.&.A.M.T B : 1X1X1X",
"1X1X1X1X1X, e B B e , 1X1X1X1X1X"
};
